<mxfile host="65bd71144e">
    <diagram id="U9w8j6XLe7hF3qa7f_Oh" name="Page-1">
        <mxGraphModel dx="3805" dy="2148" grid="1" gridSize="10" guides="1" tooltips="1" connect="1" arrows="1" fold="1" page="1" pageScale="1" pageWidth="850" pageHeight="1100" math="0" shadow="0">
            <root>
                <mxCell id="0"/>
                <mxCell id="1" parent="0"/>
                <mxCell id="2" value="&lt;b&gt;USER/CUSTOMER&lt;/b&gt;" style="whiteSpace=wrap;html=1;aspect=fixed;" parent="1" vertex="1">
                    <mxGeometry x="145" y="100" width="120" height="120" as="geometry"/>
                </mxCell>
                <mxCell id="13" value="" style="edgeStyle=none;html=1;" parent="1" source="3" target="2" edge="1">
                    <mxGeometry relative="1" as="geometry">
                        <Array as="points">
                            <mxPoint x="205" y="90"/>
                        </Array>
                    </mxGeometry>
                </mxCell>
                <mxCell id="3" value="&lt;u style=&quot;scrollbar-color: light-dark(#e2e2e2, #4b4b4b)&lt;br/&gt;&#x9;&#x9;&#x9;&#x9;&#x9;light-dark(#fbfbfb, var(--dark-panel-color));&quot;&gt;UserID&lt;/u&gt;" style="ellipse;whiteSpace=wrap;html=1;" parent="1" vertex="1">
                    <mxGeometry x="145" y="30" width="90" height="30" as="geometry"/>
                </mxCell>
                <mxCell id="8" style="edgeStyle=none;html=1;" parent="1" source="4" target="2" edge="1">
                    <mxGeometry relative="1" as="geometry"/>
                </mxCell>
                <mxCell id="4" value="Name" style="ellipse;whiteSpace=wrap;html=1;" parent="1" vertex="1">
                    <mxGeometry x="7.5" y="60" width="90" height="40" as="geometry"/>
                </mxCell>
                <mxCell id="11" style="edgeStyle=none;html=1;entryX=-0.019;entryY=0.65;entryDx=0;entryDy=0;entryPerimeter=0;" parent="1" source="5" target="2" edge="1">
                    <mxGeometry relative="1" as="geometry"/>
                </mxCell>
                <mxCell id="5" value="Email" style="ellipse;whiteSpace=wrap;html=1;" parent="1" vertex="1">
                    <mxGeometry x="5" y="170" width="80" height="30" as="geometry"/>
                </mxCell>
                <mxCell id="15" style="edgeStyle=none;html=1;entryX=-0.023;entryY=0.896;entryDx=0;entryDy=0;entryPerimeter=0;" parent="1" source="6" target="2" edge="1">
                    <mxGeometry relative="1" as="geometry"/>
                </mxCell>
                <mxCell id="6" value="PhoneNumber" style="ellipse;whiteSpace=wrap;html=1;" parent="1" vertex="1">
                    <mxGeometry y="210" width="90" height="40" as="geometry"/>
                </mxCell>
                <mxCell id="10" style="edgeStyle=none;html=1;entryX=0;entryY=0.25;entryDx=0;entryDy=0;" parent="1" source="7" target="2" edge="1">
                    <mxGeometry relative="1" as="geometry"/>
                </mxCell>
                <mxCell id="7" value="Password" style="ellipse;whiteSpace=wrap;html=1;" parent="1" vertex="1">
                    <mxGeometry x="7.5" y="120" width="75" height="40" as="geometry"/>
                </mxCell>
                <mxCell id="17" style="edgeStyle=none;html=1;entryX=0;entryY=1;entryDx=0;entryDy=0;" parent="1" source="16" target="2" edge="1">
                    <mxGeometry relative="1" as="geometry"/>
                </mxCell>
                <mxCell id="16" value="Address" style="ellipse;whiteSpace=wrap;html=1;" parent="1" vertex="1">
                    <mxGeometry x="10" y="260" width="90" height="40" as="geometry"/>
                </mxCell>
                <mxCell id="19" style="edgeStyle=none;html=1;entryX=0.379;entryY=1.013;entryDx=0;entryDy=0;entryPerimeter=0;" parent="1" source="18" target="2" edge="1">
                    <mxGeometry relative="1" as="geometry"/>
                </mxCell>
                <mxCell id="18" value="payment method" style="ellipse;whiteSpace=wrap;html=1;" parent="1" vertex="1">
                    <mxGeometry x="120" y="270" width="90" height="30" as="geometry"/>
                </mxCell>
                <mxCell id="20" value="&lt;b&gt;ADMIN&lt;/b&gt;" style="whiteSpace=wrap;html=1;aspect=fixed;" parent="1" vertex="1">
                    <mxGeometry x="615" y="80" width="80" height="80" as="geometry"/>
                </mxCell>
                <mxCell id="30" style="edgeStyle=none;html=1;entryX=0;entryY=0;entryDx=0;entryDy=0;" parent="1" source="21" target="20" edge="1">
                    <mxGeometry relative="1" as="geometry"/>
                </mxCell>
                <mxCell id="21" value="&lt;u&gt;AdminID&lt;/u&gt;" style="ellipse;whiteSpace=wrap;html=1;" parent="1" vertex="1">
                    <mxGeometry x="552.5" width="90" height="30" as="geometry"/>
                </mxCell>
                <mxCell id="29" style="edgeStyle=none;html=1;entryX=1;entryY=0;entryDx=0;entryDy=0;" parent="1" source="22" target="20" edge="1">
                    <mxGeometry relative="1" as="geometry"/>
                </mxCell>
                <mxCell id="22" value="Name" style="ellipse;whiteSpace=wrap;html=1;" parent="1" vertex="1">
                    <mxGeometry x="632.5" y="-30" width="90" height="30" as="geometry"/>
                </mxCell>
                <mxCell id="27" style="edgeStyle=none;html=1;exitX=1;exitY=0.5;exitDx=0;exitDy=0;entryX=0;entryY=0.5;entryDx=0;entryDy=0;" parent="1" source="23" target="20" edge="1">
                    <mxGeometry relative="1" as="geometry"/>
                </mxCell>
                <mxCell id="23" value="Email" style="ellipse;whiteSpace=wrap;html=1;" parent="1" vertex="1">
                    <mxGeometry x="490" y="30" width="90" height="30" as="geometry"/>
                </mxCell>
                <mxCell id="28" style="edgeStyle=none;html=1;entryX=1.025;entryY=0.656;entryDx=0;entryDy=0;entryPerimeter=0;" parent="1" source="24" target="20" edge="1">
                    <mxGeometry relative="1" as="geometry"/>
                </mxCell>
                <mxCell id="24" value="Password" style="ellipse;whiteSpace=wrap;html=1;" parent="1" vertex="1">
                    <mxGeometry x="715" y="20" width="90" height="30" as="geometry"/>
                </mxCell>
                <mxCell id="31" value="&lt;b&gt;AGENCY&lt;/b&gt;" style="whiteSpace=wrap;html=1;aspect=fixed;" parent="1" vertex="1">
                    <mxGeometry x="630" y="310" width="100" height="100" as="geometry"/>
                </mxCell>
                <mxCell id="40" style="edgeStyle=none;html=1;entryX=0.65;entryY=-0.02;entryDx=0;entryDy=0;entryPerimeter=0;" parent="1" source="32" target="31" edge="1">
                    <mxGeometry relative="1" as="geometry"/>
                </mxCell>
                <mxCell id="32" value="Name" style="ellipse;whiteSpace=wrap;html=1;" parent="1" vertex="1">
                    <mxGeometry x="705" y="225" width="90" height="35" as="geometry"/>
                </mxCell>
                <mxCell id="41" style="edgeStyle=none;html=1;entryX=1;entryY=0;entryDx=0;entryDy=0;" parent="1" source="33" target="31" edge="1">
                    <mxGeometry relative="1" as="geometry"/>
                </mxCell>
                <mxCell id="33" value="Location" style="ellipse;whiteSpace=wrap;html=1;" parent="1" vertex="1">
                    <mxGeometry x="745" y="270" width="90" height="30" as="geometry"/>
                </mxCell>
                <mxCell id="42" style="edgeStyle=none;html=1;entryX=1;entryY=0.365;entryDx=0;entryDy=0;entryPerimeter=0;" parent="1" source="34" target="31" edge="1">
                    <mxGeometry relative="1" as="geometry"/>
                </mxCell>
                <mxCell id="34" value="Contact info" style="ellipse;whiteSpace=wrap;html=1;" parent="1" vertex="1">
                    <mxGeometry x="750" y="370" width="80" height="30" as="geometry"/>
                </mxCell>
                <mxCell id="43" style="edgeStyle=none;html=1;entryX=1;entryY=1;entryDx=0;entryDy=0;" parent="1" source="35" target="31" edge="1">
                    <mxGeometry relative="1" as="geometry"/>
                </mxCell>
                <mxCell id="35" value="Registraction Number" style="ellipse;whiteSpace=wrap;html=1;" parent="1" vertex="1">
                    <mxGeometry x="745" y="415" width="90" height="40" as="geometry"/>
                </mxCell>
                <mxCell id="39" style="edgeStyle=none;html=1;entryX=0.1;entryY=-0.02;entryDx=0;entryDy=0;entryPerimeter=0;" parent="1" source="37" target="31" edge="1">
                    <mxGeometry relative="1" as="geometry"/>
                </mxCell>
                <mxCell id="37" value="&lt;u&gt;AgencyID&lt;/u&gt;" style="ellipse;whiteSpace=wrap;html=1;" parent="1" vertex="1">
                    <mxGeometry x="620" y="200" width="90" height="30" as="geometry"/>
                </mxCell>
                <mxCell id="44" value="&lt;b&gt;BUS&lt;/b&gt;" style="whiteSpace=wrap;html=1;aspect=fixed;" parent="1" vertex="1">
                    <mxGeometry x="700" y="630" width="100" height="100" as="geometry"/>
                </mxCell>
                <mxCell id="96" style="edgeStyle=none;html=1;entryX=0.75;entryY=0;entryDx=0;entryDy=0;" parent="1" source="45" target="44" edge="1">
                    <mxGeometry relative="1" as="geometry"/>
                </mxCell>
                <mxCell id="45" value="&lt;u&gt;BusID&lt;/u&gt;" style="ellipse;whiteSpace=wrap;html=1;" parent="1" vertex="1">
                    <mxGeometry x="755" y="550" width="75" height="30" as="geometry"/>
                </mxCell>
                <mxCell id="51" style="edgeStyle=none;html=1;entryX=0;entryY=0.5;entryDx=0;entryDy=0;" parent="1" source="46" target="44" edge="1">
                    <mxGeometry relative="1" as="geometry"/>
                </mxCell>
                <mxCell id="46" value="&lt;span style=&quot;color: rgb(0, 0, 0);&quot;&gt;Model&lt;/span&gt;" style="ellipse;whiteSpace=wrap;html=1;" parent="1" vertex="1">
                    <mxGeometry x="570" y="630" width="72.5" height="40" as="geometry"/>
                </mxCell>
                <mxCell id="50" style="edgeStyle=none;html=1;entryX=0;entryY=1;entryDx=0;entryDy=0;" parent="1" source="47" target="44" edge="1">
                    <mxGeometry relative="1" as="geometry"/>
                </mxCell>
                <mxCell id="47" value="&lt;span style=&quot;color: rgb(0, 0, 0);&quot;&gt;Capacity&lt;/span&gt;" style="ellipse;whiteSpace=wrap;html=1;" parent="1" vertex="1">
                    <mxGeometry x="587.5" y="750" width="85" height="40" as="geometry"/>
                </mxCell>
                <mxCell id="49" style="edgeStyle=none;html=1;entryX=0.353;entryY=1.03;entryDx=0;entryDy=0;entryPerimeter=0;" parent="1" source="48" target="44" edge="1">
                    <mxGeometry relative="1" as="geometry"/>
                </mxCell>
                <mxCell id="48" value="Licence Plate" style="ellipse;whiteSpace=wrap;html=1;" parent="1" vertex="1">
                    <mxGeometry x="650" y="790" width="90" height="40" as="geometry"/>
                </mxCell>
                <mxCell id="53" value="&lt;b&gt;BOOKNG&lt;/b&gt;" style="whiteSpace=wrap;html=1;aspect=fixed;" parent="1" vertex="1">
                    <mxGeometry x="290" y="430" width="110" height="110" as="geometry"/>
                </mxCell>
                <mxCell id="58" style="edgeStyle=none;html=1;entryX=0.841;entryY=-0.014;entryDx=0;entryDy=0;entryPerimeter=0;" parent="1" source="56" target="53" edge="1">
                    <mxGeometry relative="1" as="geometry"/>
                </mxCell>
                <mxCell id="56" value="&lt;u&gt;BookingID&lt;/u&gt;" style="ellipse;whiteSpace=wrap;html=1;" parent="1" vertex="1">
                    <mxGeometry x="360" y="360" width="90" height="40" as="geometry"/>
                </mxCell>
                <mxCell id="97" style="edgeStyle=none;html=1;entryX=0.75;entryY=1;entryDx=0;entryDy=0;" parent="1" source="57" target="53" edge="1">
                    <mxGeometry relative="1" as="geometry"/>
                </mxCell>
                <mxCell id="57" value="Stutus (confirmed/peding/cancelled)" style="ellipse;whiteSpace=wrap;html=1;" parent="1" vertex="1">
                    <mxGeometry x="320" y="570" width="170" height="70" as="geometry"/>
                </mxCell>
                <mxCell id="60" value="&lt;b&gt;PAYMENT&lt;/b&gt;" style="whiteSpace=wrap;html=1;aspect=fixed;" parent="1" vertex="1">
                    <mxGeometry x="70" y="520" width="90" height="90" as="geometry"/>
                </mxCell>
                <mxCell id="68" style="edgeStyle=none;html=1;" parent="1" source="61" target="60" edge="1">
                    <mxGeometry relative="1" as="geometry"/>
                </mxCell>
                <mxCell id="61" value="Amount" style="ellipse;whiteSpace=wrap;html=1;" parent="1" vertex="1">
                    <mxGeometry x="50" y="660" width="90" height="40" as="geometry"/>
                </mxCell>
                <mxCell id="67" style="edgeStyle=none;html=1;entryX=0;entryY=0.75;entryDx=0;entryDy=0;" parent="1" source="62" target="60" edge="1">
                    <mxGeometry relative="1" as="geometry"/>
                </mxCell>
                <mxCell id="62" value="Transaction Status" style="ellipse;whiteSpace=wrap;html=1;" parent="1" vertex="1">
                    <mxGeometry x="-40" y="540" width="90" height="40" as="geometry"/>
                </mxCell>
                <mxCell id="98" value="" style="edgeStyle=none;html=1;" parent="1" source="63" target="60" edge="1">
                    <mxGeometry relative="1" as="geometry"/>
                </mxCell>
                <mxCell id="63" value="&lt;span style=&quot;color: rgb(0, 0, 0);&quot;&gt;Payment Method&lt;/span&gt;" style="ellipse;whiteSpace=wrap;html=1;" parent="1" vertex="1">
                    <mxGeometry x="160" y="660" width="90" height="50" as="geometry"/>
                </mxCell>
                <mxCell id="66" style="edgeStyle=none;html=1;" parent="1" source="64" target="60" edge="1">
                    <mxGeometry relative="1" as="geometry"/>
                </mxCell>
                <mxCell id="64" value="Timestamp" style="ellipse;whiteSpace=wrap;html=1;" parent="1" vertex="1">
                    <mxGeometry x="50" y="410" width="90" height="40" as="geometry"/>
                </mxCell>
                <mxCell id="72" value="&lt;b&gt;MAKE&lt;/b&gt;" style="rhombus;whiteSpace=wrap;html=1;" parent="1" vertex="1">
                    <mxGeometry x="250" y="290" width="80" height="80" as="geometry"/>
                </mxCell>
                <mxCell id="73" value="" style="endArrow=none;html=1;entryX=0.75;entryY=1;entryDx=0;entryDy=0;exitX=0.419;exitY=0.075;exitDx=0;exitDy=0;exitPerimeter=0;" parent="1" source="72" target="2" edge="1">
                    <mxGeometry width="50" height="50" relative="1" as="geometry">
                        <mxPoint x="260" y="320" as="sourcePoint"/>
                        <mxPoint x="310" y="270" as="targetPoint"/>
                    </mxGeometry>
                </mxCell>
                <mxCell id="75" value="" style="endArrow=none;html=1;entryX=0.825;entryY=0.663;entryDx=0;entryDy=0;entryPerimeter=0;exitX=0.25;exitY=0;exitDx=0;exitDy=0;" parent="1" source="53" target="72" edge="1">
                    <mxGeometry width="50" height="50" relative="1" as="geometry">
                        <mxPoint x="350" y="400" as="sourcePoint"/>
                        <mxPoint x="320" y="350" as="targetPoint"/>
                    </mxGeometry>
                </mxCell>
                <mxCell id="76" value="1" style="text;strokeColor=none;align=center;fillColor=none;html=1;verticalAlign=middle;whiteSpace=wrap;rounded=0;" parent="1" vertex="1">
                    <mxGeometry x="230" y="220" width="60" height="30" as="geometry"/>
                </mxCell>
                <mxCell id="78" value="M" style="text;strokeColor=none;align=center;fillColor=none;html=1;verticalAlign=middle;whiteSpace=wrap;rounded=0;" parent="1" vertex="1">
                    <mxGeometry x="300" y="400" width="60" height="30" as="geometry"/>
                </mxCell>
                <mxCell id="79" value="&lt;b&gt;LINKED&lt;/b&gt;" style="rhombus;whiteSpace=wrap;html=1;" parent="1" vertex="1">
                    <mxGeometry x="510" y="390" width="80" height="80" as="geometry"/>
                </mxCell>
                <mxCell id="81" value="" style="endArrow=none;html=1;" parent="1" edge="1">
                    <mxGeometry width="50" height="50" relative="1" as="geometry">
                        <mxPoint x="400" y="500" as="sourcePoint"/>
                        <mxPoint x="525" y="442" as="targetPoint"/>
                    </mxGeometry>
                </mxCell>
                <mxCell id="83" value="" style="endArrow=none;html=1;exitX=1;exitY=0;exitDx=0;exitDy=0;" parent="1" source="79" edge="1">
                    <mxGeometry width="50" height="50" relative="1" as="geometry">
                        <mxPoint x="572.48" y="407.52" as="sourcePoint"/>
                        <mxPoint x="630" y="380" as="targetPoint"/>
                    </mxGeometry>
                </mxCell>
                <mxCell id="84" value="M" style="text;strokeColor=none;align=center;fillColor=none;html=1;verticalAlign=middle;whiteSpace=wrap;rounded=0;" parent="1" vertex="1">
                    <mxGeometry x="385" y="460" width="60" height="30" as="geometry"/>
                </mxCell>
                <mxCell id="85" value="1" style="text;strokeColor=none;align=center;fillColor=none;html=1;verticalAlign=middle;whiteSpace=wrap;rounded=0;" parent="1" vertex="1">
                    <mxGeometry x="590" y="360" width="60" height="30" as="geometry"/>
                </mxCell>
                <mxCell id="87" value="&lt;b&gt;MANAGES&lt;/b&gt;" style="rhombus;whiteSpace=wrap;html=1;" parent="1" vertex="1">
                    <mxGeometry x="510" y="192.5" width="80" height="70" as="geometry"/>
                </mxCell>
                <mxCell id="88" value="" style="endArrow=none;html=1;exitX=0.5;exitY=0;exitDx=0;exitDy=0;entryX=0;entryY=1;entryDx=0;entryDy=0;" parent="1" source="87" target="20" edge="1">
                    <mxGeometry width="50" height="50" relative="1" as="geometry">
                        <mxPoint x="558.52" y="210" as="sourcePoint"/>
                        <mxPoint x="610" y="150" as="targetPoint"/>
                    </mxGeometry>
                </mxCell>
                <mxCell id="89" value="" style="endArrow=none;html=1;exitX=0;exitY=0.25;exitDx=0;exitDy=0;" parent="1" source="31" edge="1">
                    <mxGeometry width="50" height="50" relative="1" as="geometry">
                        <mxPoint x="618.52" y="321" as="sourcePoint"/>
                        <mxPoint x="570" y="245" as="targetPoint"/>
                    </mxGeometry>
                </mxCell>
                <mxCell id="90" value="1" style="text;strokeColor=none;align=center;fillColor=none;html=1;verticalAlign=middle;whiteSpace=wrap;rounded=0;" parent="1" vertex="1">
                    <mxGeometry x="567.5" y="140" width="60" height="30" as="geometry"/>
                </mxCell>
                <mxCell id="91" value="M" style="text;strokeColor=none;align=center;fillColor=none;html=1;verticalAlign=middle;whiteSpace=wrap;rounded=0;" parent="1" vertex="1">
                    <mxGeometry x="590" y="290" width="60" height="30" as="geometry"/>
                </mxCell>
                <mxCell id="99" value="&lt;b&gt;ROUTE&lt;/b&gt;" style="whiteSpace=wrap;html=1;aspect=fixed;" parent="1" vertex="1">
                    <mxGeometry x="145" y="745" width="90" height="90" as="geometry"/>
                </mxCell>
                <mxCell id="108" style="edgeStyle=none;html=1;entryX=0;entryY=0.5;entryDx=0;entryDy=0;" parent="1" source="100" target="99" edge="1">
                    <mxGeometry relative="1" as="geometry"/>
                </mxCell>
                <mxCell id="100" value="Price" style="ellipse;whiteSpace=wrap;html=1;" parent="1" vertex="1">
                    <mxGeometry x="30" y="760" width="90" height="40" as="geometry"/>
                </mxCell>
                <mxCell id="105" style="edgeStyle=none;html=1;exitX=1;exitY=0.5;exitDx=0;exitDy=0;entryX=0.011;entryY=0.883;entryDx=0;entryDy=0;entryPerimeter=0;" parent="1" source="101" target="99" edge="1">
                    <mxGeometry relative="1" as="geometry"/>
                </mxCell>
                <mxCell id="101" value="Departure Location" style="ellipse;whiteSpace=wrap;html=1;" parent="1" vertex="1">
                    <mxGeometry x="40" y="850" width="90" height="40" as="geometry"/>
                </mxCell>
                <mxCell id="107" style="edgeStyle=none;html=1;entryX=0.25;entryY=1;entryDx=0;entryDy=0;" parent="1" source="102" target="99" edge="1">
                    <mxGeometry relative="1" as="geometry"/>
                </mxCell>
                <mxCell id="102" value="Arrival Location" style="ellipse;whiteSpace=wrap;html=1;" parent="1" vertex="1">
                    <mxGeometry x="82.5" y="890" width="90" height="40" as="geometry"/>
                </mxCell>
                <mxCell id="106" style="edgeStyle=none;html=1;entryX=0.75;entryY=1;entryDx=0;entryDy=0;" parent="1" source="103" target="99" edge="1">
                    <mxGeometry relative="1" as="geometry"/>
                </mxCell>
                <mxCell id="103" value="&lt;span style=&quot;color: rgb(0, 0, 0);&quot;&gt;Duration&lt;/span&gt;" style="ellipse;whiteSpace=wrap;html=1;" parent="1" vertex="1">
                    <mxGeometry x="130" y="940" width="90" height="30" as="geometry"/>
                </mxCell>
                <mxCell id="109" value="&lt;b&gt;CONTROL&lt;/b&gt;" style="rhombus;whiteSpace=wrap;html=1;" parent="1" vertex="1">
                    <mxGeometry x="642.5" y="480" width="80" height="60" as="geometry"/>
                </mxCell>
                <mxCell id="111" value="" style="endArrow=none;html=1;entryX=0.605;entryY=1.015;entryDx=0;entryDy=0;entryPerimeter=0;" parent="1" source="109" target="31" edge="1">
                    <mxGeometry width="50" height="50" relative="1" as="geometry">
                        <mxPoint x="585" y="495" as="sourcePoint"/>
                        <mxPoint x="710" y="437" as="targetPoint"/>
                    </mxGeometry>
                </mxCell>
                <mxCell id="114" value="" style="endArrow=none;html=1;entryX=0.5;entryY=1;entryDx=0;entryDy=0;exitX=0.17;exitY=0.015;exitDx=0;exitDy=0;exitPerimeter=0;" parent="1" source="44" target="109" edge="1">
                    <mxGeometry width="50" height="50" relative="1" as="geometry">
                        <mxPoint x="704.2966507177034" y="620.2224880382776" as="sourcePoint"/>
                        <mxPoint x="710" y="550" as="targetPoint"/>
                    </mxGeometry>
                </mxCell>
                <mxCell id="116" value="1" style="text;strokeColor=none;align=center;fillColor=none;html=1;verticalAlign=middle;whiteSpace=wrap;rounded=0;" parent="1" vertex="1">
                    <mxGeometry x="650" y="410" width="60" height="30" as="geometry"/>
                </mxCell>
                <mxCell id="117" value="M" style="text;strokeColor=none;align=center;fillColor=none;html=1;verticalAlign=middle;whiteSpace=wrap;rounded=0;" parent="1" vertex="1">
                    <mxGeometry x="695" y="600" width="60" height="30" as="geometry"/>
                </mxCell>
                <mxCell id="118" value="&lt;b&gt;REQUIRES&lt;/b&gt;" style="rhombus;whiteSpace=wrap;html=1;" parent="1" vertex="1">
                    <mxGeometry x="165" y="420" width="80" height="80" as="geometry"/>
                </mxCell>
                <mxCell id="119" value="" style="endArrow=none;html=1;exitX=1;exitY=0.5;exitDx=0;exitDy=0;" parent="1" source="118" edge="1">
                    <mxGeometry width="50" height="50" relative="1" as="geometry">
                        <mxPoint x="250" y="460" as="sourcePoint"/>
                        <mxPoint x="290" y="460" as="targetPoint"/>
                    </mxGeometry>
                </mxCell>
                <mxCell id="121" value="" style="endArrow=none;html=1;entryX=0;entryY=0.5;entryDx=0;entryDy=0;" parent="1" source="60" target="118" edge="1">
                    <mxGeometry width="50" height="50" relative="1" as="geometry">
                        <mxPoint x="166.5" y="556.96" as="sourcePoint"/>
                        <mxPoint x="165" y="469.99999999999994" as="targetPoint"/>
                    </mxGeometry>
                </mxCell>
                <mxCell id="122" value="1" style="text;strokeColor=none;align=center;fillColor=none;html=1;verticalAlign=middle;whiteSpace=wrap;rounded=0;" parent="1" vertex="1">
                    <mxGeometry x="250" y="460" width="60" height="30" as="geometry"/>
                </mxCell>
                <mxCell id="175" value="" style="edgeStyle=none;html=1;" edge="1" parent="1" source="123" target="64">
                    <mxGeometry relative="1" as="geometry"/>
                </mxCell>
                <mxCell id="123" value="1" style="text;strokeColor=none;align=center;fillColor=none;html=1;verticalAlign=middle;whiteSpace=wrap;rounded=0;" parent="1" vertex="1">
                    <mxGeometry x="120" y="495" width="60" height="30" as="geometry"/>
                </mxCell>
                <mxCell id="131" style="edgeStyle=none;html=1;entryX=0;entryY=0;entryDx=0;entryDy=0;" parent="1" source="130" target="60" edge="1">
                    <mxGeometry relative="1" as="geometry"/>
                </mxCell>
                <mxCell id="130" value="&lt;u&gt;PaymentID&lt;/u&gt;" style="ellipse;whiteSpace=wrap;html=1;" parent="1" vertex="1">
                    <mxGeometry y="450" width="90" height="40" as="geometry"/>
                </mxCell>
                <mxCell id="133" style="edgeStyle=none;html=1;entryX=0.963;entryY=0.93;entryDx=0;entryDy=0;entryPerimeter=0;" parent="1" source="132" target="99" edge="1">
                    <mxGeometry relative="1" as="geometry">
                        <mxPoint x="410" y="860" as="targetPoint"/>
                    </mxGeometry>
                </mxCell>
                <mxCell id="132" value="&lt;u&gt;RouteID&lt;/u&gt;" style="ellipse;whiteSpace=wrap;html=1;" parent="1" vertex="1">
                    <mxGeometry x="230" y="900" width="90" height="40" as="geometry"/>
                </mxCell>
                <mxCell id="136" style="edgeStyle=none;html=1;entryX=0;entryY=0;entryDx=0;entryDy=0;" parent="1" source="135" target="2" edge="1">
                    <mxGeometry relative="1" as="geometry"/>
                </mxCell>
                <mxCell id="135" value="&lt;u style=&quot;scrollbar-color: light-dark(#e2e2e2, #4b4b4b)&lt;br/&gt;&#x9;&#x9;&#x9;&#x9;&#x9;light-dark(#fbfbfb, var(--dark-panel-color));&quot;&gt;RegistrationDate&lt;/u&gt;" style="ellipse;whiteSpace=wrap;html=1;" parent="1" vertex="1">
                    <mxGeometry x="30" y="10" width="110" height="30" as="geometry"/>
                </mxCell>
                <mxCell id="138" value="Role" style="ellipse;whiteSpace=wrap;html=1;" parent="1" vertex="1">
                    <mxGeometry x="497.5" y="80" width="90" height="30" as="geometry"/>
                </mxCell>
                <mxCell id="139" style="edgeStyle=none;html=1;entryX=0;entryY=0.688;entryDx=0;entryDy=0;entryPerimeter=0;" parent="1" source="138" target="20" edge="1">
                    <mxGeometry relative="1" as="geometry"/>
                </mxCell>
                <mxCell id="141" style="edgeStyle=none;html=1;entryX=1;entryY=0.25;entryDx=0;entryDy=0;" parent="1" source="140" target="31" edge="1">
                    <mxGeometry relative="1" as="geometry"/>
                </mxCell>
                <mxCell id="140" value="Status" style="ellipse;whiteSpace=wrap;html=1;" parent="1" vertex="1">
                    <mxGeometry x="770" y="320" width="70" height="30" as="geometry"/>
                </mxCell>
                <mxCell id="144" style="edgeStyle=none;html=1;exitX=1;exitY=0.5;exitDx=0;exitDy=0;entryX=0;entryY=0.75;entryDx=0;entryDy=0;" parent="1" source="142" target="44" edge="1">
                    <mxGeometry relative="1" as="geometry"/>
                </mxCell>
                <mxCell id="142" value="&lt;span style=&quot;color: rgb(0, 0, 0);&quot;&gt;Status&lt;/span&gt;" style="ellipse;whiteSpace=wrap;html=1;" parent="1" vertex="1">
                    <mxGeometry x="570" y="690" width="85" height="30" as="geometry"/>
                </mxCell>
                <mxCell id="146" style="edgeStyle=none;html=1;entryX=0.75;entryY=1;entryDx=0;entryDy=0;" parent="1" source="145" target="44" edge="1">
                    <mxGeometry relative="1" as="geometry"/>
                </mxCell>
                <mxCell id="145" value="&lt;span style=&quot;color: rgb(0, 0, 0);&quot;&gt;LastMaintenaceDate&lt;/span&gt;" style="ellipse;whiteSpace=wrap;html=1;" parent="1" vertex="1">
                    <mxGeometry x="795" y="785" width="115" height="40" as="geometry"/>
                </mxCell>
                <mxCell id="149" style="edgeStyle=none;html=1;entryX=1;entryY=0.75;entryDx=0;entryDy=0;" parent="1" source="148" target="99" edge="1">
                    <mxGeometry relative="1" as="geometry"/>
                </mxCell>
                <mxCell id="148" value="&lt;u&gt;DistanceKM&lt;/u&gt;" style="ellipse;whiteSpace=wrap;html=1;" parent="1" vertex="1">
                    <mxGeometry x="270" y="860" width="90" height="40" as="geometry"/>
                </mxCell>
                <mxCell id="150" value="TransactionID" style="ellipse;whiteSpace=wrap;html=1;" parent="1" vertex="1">
                    <mxGeometry x="-60" y="620" width="90" height="40" as="geometry"/>
                </mxCell>
                <mxCell id="151" style="edgeStyle=none;html=1;entryX=0.021;entryY=0.939;entryDx=0;entryDy=0;entryPerimeter=0;" parent="1" source="150" target="60" edge="1">
                    <mxGeometry relative="1" as="geometry"/>
                </mxCell>
                <mxCell id="152" value="SCHEDULE" style="whiteSpace=wrap;html=1;aspect=fixed;" parent="1" vertex="1">
                    <mxGeometry x="390" y="745" width="120" height="120" as="geometry"/>
                </mxCell>
                <mxCell id="171" style="edgeStyle=none;html=1;entryX=0.083;entryY=0.967;entryDx=0;entryDy=0;entryPerimeter=0;" edge="1" parent="1" source="153" target="152">
                    <mxGeometry relative="1" as="geometry">
                        <mxPoint x="400" y="870" as="targetPoint"/>
                    </mxGeometry>
                </mxCell>
                <mxCell id="153" value="Departure Time" style="ellipse;whiteSpace=wrap;html=1;" parent="1" vertex="1">
                    <mxGeometry x="317.5" y="990" width="90" height="30" as="geometry"/>
                </mxCell>
                <mxCell id="170" style="edgeStyle=none;html=1;" edge="1" parent="1" source="155" target="152">
                    <mxGeometry relative="1" as="geometry"/>
                </mxCell>
                <mxCell id="155" value="AvailableSeats" style="ellipse;whiteSpace=wrap;html=1;" parent="1" vertex="1">
                    <mxGeometry x="480" y="990" width="90" height="30" as="geometry"/>
                </mxCell>
                <mxCell id="165" style="edgeStyle=none;html=1;entryX=0.5;entryY=0.958;entryDx=0;entryDy=0;entryPerimeter=0;" edge="1" parent="1" source="156" target="152">
                    <mxGeometry relative="1" as="geometry">
                        <mxPoint x="450" y="870" as="targetPoint"/>
                    </mxGeometry>
                </mxCell>
                <mxCell id="156" value="&lt;u&gt;SheduleIID&lt;/u&gt;" style="ellipse;whiteSpace=wrap;html=1;" parent="1" vertex="1">
                    <mxGeometry x="407.5" y="900" width="90" height="30" as="geometry"/>
                </mxCell>
                <mxCell id="157" value="Status" style="ellipse;whiteSpace=wrap;html=1;" parent="1" vertex="1">
                    <mxGeometry x="380" y="950" width="90" height="30" as="geometry"/>
                </mxCell>
                <mxCell id="164" style="edgeStyle=none;html=1;entryX=0.2;entryY=1.004;entryDx=0;entryDy=0;entryPerimeter=0;" edge="1" parent="1" source="157" target="152">
                    <mxGeometry relative="1" as="geometry"/>
                </mxCell>
                <mxCell id="168" style="edgeStyle=none;html=1;" edge="1" parent="1" source="166">
                    <mxGeometry relative="1" as="geometry">
                        <mxPoint x="500" y="870" as="targetPoint"/>
                    </mxGeometry>
                </mxCell>
                <mxCell id="166" value="Price" style="ellipse;whiteSpace=wrap;html=1;" vertex="1" parent="1">
                    <mxGeometry x="510" y="945" width="90" height="20" as="geometry"/>
                </mxCell>
                <mxCell id="172" value="&lt;b&gt;HAVE&lt;/b&gt;" style="rhombus;whiteSpace=wrap;html=1;" vertex="1" parent="1">
                    <mxGeometry x="290" y="750" width="60" height="60" as="geometry"/>
                </mxCell>
                <mxCell id="176" value="" style="endArrow=none;html=1;exitX=1;exitY=0.5;exitDx=0;exitDy=0;entryX=0;entryY=0.5;entryDx=0;entryDy=0;" edge="1" parent="1" source="99" target="172">
                    <mxGeometry width="50" height="50" relative="1" as="geometry">
                        <mxPoint x="245" y="790" as="sourcePoint"/>
                        <mxPoint x="274" y="730" as="targetPoint"/>
                    </mxGeometry>
                </mxCell>
                <mxCell id="177" value="" style="endArrow=none;html=1;entryX=0;entryY=0.25;entryDx=0;entryDy=0;exitX=1;exitY=0.5;exitDx=0;exitDy=0;" edge="1" parent="1" source="172" target="152">
                    <mxGeometry width="50" height="50" relative="1" as="geometry">
                        <mxPoint x="340" y="750" as="sourcePoint"/>
                        <mxPoint x="369" y="690" as="targetPoint"/>
                    </mxGeometry>
                </mxCell>
                <mxCell id="178" value="1" style="text;strokeColor=none;align=center;fillColor=none;html=1;verticalAlign=middle;whiteSpace=wrap;rounded=0;" vertex="1" parent="1">
                    <mxGeometry x="220" y="760" width="60" height="30" as="geometry"/>
                </mxCell>
                <mxCell id="179" value="M" style="text;strokeColor=none;align=center;fillColor=none;html=1;verticalAlign=middle;whiteSpace=wrap;rounded=0;" vertex="1" parent="1">
                    <mxGeometry x="350" y="750" width="60" height="30" as="geometry"/>
                </mxCell>
                <mxCell id="181" value="&lt;b&gt;OFFER&lt;/b&gt;" style="rhombus;whiteSpace=wrap;html=1;" vertex="1" parent="1">
                    <mxGeometry x="520" y="510" width="80" height="60" as="geometry"/>
                </mxCell>
                <mxCell id="182" value="" style="endArrow=none;html=1;entryX=0.5;entryY=1;entryDx=0;entryDy=0;exitX=0;exitY=0.5;exitDx=0;exitDy=0;" edge="1" parent="1" target="181">
                    <mxGeometry width="50" height="50" relative="1" as="geometry">
                        <mxPoint x="445" y="745" as="sourcePoint"/>
                        <mxPoint x="535" y="651" as="targetPoint"/>
                    </mxGeometry>
                </mxCell>
                <mxCell id="183" value="" style="endArrow=none;html=1;exitX=0.5;exitY=0;exitDx=0;exitDy=0;entryX=0;entryY=1;entryDx=0;entryDy=0;" edge="1" parent="1" source="181" target="31">
                    <mxGeometry width="50" height="50" relative="1" as="geometry">
                        <mxPoint x="535" y="489" as="sourcePoint"/>
                        <mxPoint x="660" y="431" as="targetPoint"/>
                    </mxGeometry>
                </mxCell>
                <mxCell id="187" value="M" style="text;strokeColor=none;align=center;fillColor=none;html=1;verticalAlign=middle;whiteSpace=wrap;rounded=0;" vertex="1" parent="1">
                    <mxGeometry x="407.5" y="715" width="60" height="30" as="geometry"/>
                </mxCell>
                <mxCell id="188" value="1" style="text;strokeColor=none;align=center;fillColor=none;html=1;verticalAlign=middle;whiteSpace=wrap;rounded=0;" vertex="1" parent="1">
                    <mxGeometry x="595" y="390" width="60" height="30" as="geometry"/>
                </mxCell>
                <mxCell id="189" value="&lt;b&gt;ASIGNED&lt;/b&gt;" style="rhombus;whiteSpace=wrap;html=1;" vertex="1" parent="1">
                    <mxGeometry x="705" y="905" width="85" height="60" as="geometry"/>
                </mxCell>
                <mxCell id="190" value="" style="endArrow=none;html=1;entryX=0;entryY=0.5;entryDx=0;entryDy=0;exitX=1.025;exitY=0.621;exitDx=0;exitDy=0;exitPerimeter=0;" edge="1" parent="1" source="152" target="189">
                    <mxGeometry width="50" height="50" relative="1" as="geometry">
                        <mxPoint x="555" y="975" as="sourcePoint"/>
                        <mxPoint x="670" y="800" as="targetPoint"/>
                    </mxGeometry>
                </mxCell>
                <mxCell id="191" value="" style="endArrow=none;html=1;entryX=0.6;entryY=0.99;entryDx=0;entryDy=0;entryPerimeter=0;" edge="1" parent="1" source="189" target="44">
                    <mxGeometry width="50" height="50" relative="1" as="geometry">
                        <mxPoint x="820" y="955" as="sourcePoint"/>
                        <mxPoint x="935" y="780" as="targetPoint"/>
                    </mxGeometry>
                </mxCell>
                <mxCell id="192" value="M" style="text;strokeColor=none;align=center;fillColor=none;html=1;verticalAlign=middle;whiteSpace=wrap;rounded=0;" vertex="1" parent="1">
                    <mxGeometry x="490" y="795" width="60" height="30" as="geometry"/>
                </mxCell>
                <mxCell id="193" value="1" style="text;strokeColor=none;align=center;fillColor=none;html=1;verticalAlign=middle;whiteSpace=wrap;rounded=0;" vertex="1" parent="1">
                    <mxGeometry x="740" y="730" width="60" height="30" as="geometry"/>
                </mxCell>
            </root>
        </mxGraphModel>
    </diagram>
</mxfile>